<svg version="1.1" id="Layer_1" xmlns="http://www.w3.org/2000/svg" xmlns:xlink="http://www.w3.org/1999/xlink" x="0px" y="0px"
	 width="100%" viewBox="0 0 158 158" enable-background="new 0 0 158 158" xml:space="preserve">
<path fill="#FEFEFE" opacity="1.000000" stroke="none" 
	d="
M88.000000,159.000000 
	C58.666672,159.000000 29.833340,159.000000 1.000008,159.000000 
	C1.000005,106.333344 1.000005,53.666687 1.000003,1.000022 
	C53.666653,1.000015 106.333305,1.000015 158.999969,1.000007 
	C158.999969,53.666645 158.999969,106.333290 158.999985,158.999969 
	C135.500000,159.000000 112.000000,159.000000 88.000000,159.000000 
M43.880363,115.623894 
	C65.010719,127.019249 85.283661,124.887527 105.465782,111.113495 
	C113.833656,119.606804 122.186195,128.084549 130.184937,136.203201 
	C133.014114,133.454773 135.703003,130.842636 138.935760,127.702126 
	C130.434265,119.326561 121.926018,110.944351 113.445641,102.589592 
	C136.341217,71.447334 121.856628,37.229389 100.782051,23.992926 
	C74.122566,7.248703 40.778156,14.812798 24.630394,41.288467 
	C9.220993,66.553535 17.598923,99.769371 43.880363,115.623894 
z"/>
<path fill="#2A2A2A" opacity="1.000000" stroke="none" 
	d="
M43.578106,115.417831 
	C17.598923,99.769371 9.220993,66.553535 24.630394,41.288467 
	C40.778156,14.812798 74.122566,7.248703 100.782051,23.992926 
	C121.856628,37.229389 136.341217,71.447334 113.445641,102.589592 
	C121.926018,110.944351 130.434265,119.326561 138.935760,127.702126 
	C135.703003,130.842636 133.014114,133.454773 130.184937,136.203201 
	C122.186195,128.084549 113.833656,119.606804 105.465782,111.113495 
	C85.283661,124.887527 65.010719,127.019249 43.578106,115.417831 
M54.895977,107.837723 
	C62.411777,108.659172 70.044342,110.738441 77.420326,110.053734 
	C95.677757,108.358910 109.659653,93.625824 112.687317,74.566154 
	C115.487679,56.937267 105.674156,39.194344 88.550026,30.925743 
	C72.991173,23.412954 52.504864,27.376532 40.704350,39.878426 
	C20.310694,61.484219 27.720661,95.989922 54.895977,107.837723 
z"/>
<path fill="#FEFEFE" opacity="1.000000" stroke="none" 
	d="
M54.557308,107.654007 
	C27.720661,95.989922 20.310694,61.484219 40.704350,39.878426 
	C52.504864,27.376532 72.991173,23.412954 88.550026,30.925743 
	C105.674156,39.194344 115.487679,56.937267 112.687317,74.566154 
	C109.659653,93.625824 95.677757,108.358910 77.420326,110.053734 
	C70.044342,110.738441 62.411777,108.659172 54.557308,107.654007 
z"/>
</svg>